<svg width="23" height="22" viewBox="0 0 23 22" fill="none" xmlns="http://www.w3.org/2000/svg">
<path d="M2.33337 5.5L8.67031 9.09056C11.0065 10.4143 11.9936 10.4143 14.3298 9.09056L20.6667 5.5" stroke="black" stroke-width="1.5" stroke-linejoin="round"/>
<path d="M2.34783 12.3526C2.40775 15.1627 2.43772 16.5677 3.47459 17.6085C4.51145 18.6493 5.95451 18.6855 8.84064 18.758C10.6194 18.8028 12.3807 18.8028 14.1595 18.758C17.0456 18.6855 18.4886 18.6493 19.5255 17.6085C20.5624 16.5677 20.5924 15.1627 20.6522 12.3526C20.6716 11.449 20.6716 10.5508 20.6522 9.64729C20.5924 6.83721 20.5624 5.43217 19.5255 4.39136C18.4886 3.35055 17.0456 3.31429 14.1595 3.24178C12.3807 3.19708 10.6194 3.19708 8.84063 3.24177C5.95451 3.31427 4.51145 3.35053 3.47458 4.39135C2.43771 5.43216 2.40775 6.8372 2.34782 9.64729C2.32855 10.5508 2.32856 11.449 2.34783 12.3526Z" stroke="black" stroke-width="1.5" stroke-linejoin="round"/>
</svg>
