<svg width="20" height="21" viewBox="0 0 20 21" fill="none" xmlns="http://www.w3.org/2000/svg">
<path d="M9.16659 18.8333H8.0181C6.06155 18.8333 5.08328 18.8333 4.40463 18.2454C3.72598 17.6574 3.55976 16.6659 3.22733 14.6828L2.22436 8.69984C2.07271 7.79523 1.99689 7.34293 2.23969 7.04647C2.4825 6.75 2.92876 6.75 3.82129 6.75H16.1786C17.0711 6.75 17.5173 6.75 17.7602 7.04647C18.0029 7.34293 17.9271 7.79523 17.7755 8.69984L17.334 11.3333" stroke="black" stroke-width="1.5" stroke-linecap="round"/>
<path d="M11.25 17.1667C11.25 17.1667 12.0833 17.1667 12.9167 18.8334C12.9167 18.8334 15.5637 14.6667 17.9167 13.8334" stroke="black" stroke-width="1.5" stroke-linecap="round" stroke-linejoin="round"/>
<path d="M14.5834 6.74996C14.5834 4.21865 12.5314 2.16663 10.0001 2.16663C7.46877 2.16663 5.41675 4.21865 5.41675 6.74996" stroke="black" stroke-width="1.5"/>
</svg>
