<svg width="23" height="22" viewBox="0 0 23 22" fill="none" xmlns="http://www.w3.org/2000/svg">
<path d="M13.7835 14.2083H13.7917M9.20837 14.2083H9.2166" stroke="black" stroke-width="2" stroke-linecap="round" stroke-linejoin="round"/>
<path d="M4.41212 17.2743C4.61826 18.8054 5.88641 20.0049 7.42965 20.0758C8.72821 20.1355 10.0473 20.1667 11.5 20.1667C12.9526 20.1667 14.2717 20.1355 15.5702 20.0758C17.1135 20.0049 18.3817 18.8054 18.5878 17.2743C18.7224 16.2751 18.8333 15.2511 18.8333 14.2083C18.8333 13.1655 18.7224 12.1415 18.5878 11.1424C18.3817 9.61125 17.1135 8.41178 15.5702 8.34083C14.2717 8.28114 12.9526 8.25 11.5 8.25C10.0473 8.25 8.72821 8.28114 7.42965 8.34083C5.88641 8.41178 4.61826 9.61125 4.41212 11.1424C4.27759 12.1415 4.16663 13.1655 4.16663 14.2083C4.16663 15.2511 4.27759 16.2751 4.41212 17.2743Z" stroke="black" stroke-width="1.5"/>
<path d="M7.375 8.24992V5.95825C7.375 3.68008 9.22183 1.83325 11.5 1.83325C13.7782 1.83325 15.625 3.68008 15.625 5.95825V8.24992" stroke="black" stroke-width="1.5" stroke-linecap="round" stroke-linejoin="round"/>
</svg>
