<svg width="23" height="22" viewBox="0 0 23 22" fill="none" xmlns="http://www.w3.org/2000/svg">
<path d="M2.79163 11.0001C2.79163 6.89494 2.79163 4.84236 4.06693 3.56705C5.34224 2.29175 7.39481 2.29175 11.5 2.29175C15.6051 2.29175 17.6577 2.29175 18.933 3.56705C20.2083 4.84236 20.2083 6.89494 20.2083 11.0001C20.2083 15.1052 20.2083 17.1578 18.933 18.4331C17.6577 19.7084 15.6051 19.7084 11.5 19.7084C7.39481 19.7084 5.34224 19.7084 4.06693 18.4331C2.79163 17.1578 2.79163 15.1052 2.79163 11.0001Z" stroke="black" stroke-width="1.5"/>
<path d="M7.375 15.5834C9.51239 13.3447 13.4646 13.2393 15.625 15.5834M13.7872 8.70841C13.7872 9.97406 12.7597 11.0001 11.4922 11.0001C10.2248 11.0001 9.19731 9.97406 9.19731 8.70841C9.19731 7.44276 10.2248 6.41675 11.4922 6.41675C12.7597 6.41675 13.7872 7.44276 13.7872 8.70841Z" stroke="black" stroke-width="1.5" stroke-linecap="round"/>
</svg>
