<svg width="20" height="21" viewBox="0 0 20 21" fill="none" xmlns="http://www.w3.org/2000/svg">
<path d="M2.08325 10.5C2.08325 6.76809 2.08325 4.90212 3.24262 3.74274C4.40199 2.58337 6.26797 2.58337 9.99992 2.58337C13.7318 2.58337 15.5978 2.58337 16.7573 3.74274C17.9166 4.90212 17.9166 6.76809 17.9166 10.5C17.9166 14.232 17.9166 16.098 16.7573 17.2574C15.5978 18.4167 13.7318 18.4167 9.99992 18.4167C6.26797 18.4167 4.40199 18.4167 3.24262 17.2574C2.08325 16.098 2.08325 14.232 2.08325 10.5Z" stroke="black" stroke-width="1.5"/>
<path d="M6.25 14.6667C8.19308 12.6315 11.786 12.5357 13.75 14.6667M12.0792 8.41671C12.0792 9.56729 11.1452 10.5 9.99292 10.5C8.84075 10.5 7.90664 9.56729 7.90664 8.41671C7.90664 7.26612 8.84075 6.33337 9.99292 6.33337C11.1452 6.33337 12.0792 7.26612 12.0792 8.41671Z" stroke="black" stroke-width="1.5" stroke-linecap="round"/>
</svg>
